<svg width="32" height="32" viewBox="0 0 32 32" fill="none" xmlns="http://www.w3.org/2000/svg">

  <!-- Background rounded square -->
  <rect width="32" height="32" rx="6" fill="#0D0D0D"/>

  <!-- Scale the xScaler logo mark to fit in 32×32 (original viewBox 100×100, scale 0.26, offset to centre) -->
  <g transform="translate(1.6, 1.6) scale(0.288)">

    <!-- Connector lines (drawn first, behind nodes) -->
    <path d="M50 44C48 34 42 22 34 16" stroke="#FF4F00" stroke-width="5" stroke-linecap="round"/>
    <path d="M54 52C62 56 74 60 82 58" stroke="#FF4F00" stroke-width="5" stroke-linecap="round"/>
    <path d="M46 54C40 62 30 74 22 80" stroke="#FF4F00" stroke-width="5" stroke-linecap="round"/>

    <!-- Faint orbit arcs -->
    <path d="M38 20C56 18 72 30 80 52" stroke="#FF4F00" stroke-width="3.5" stroke-linecap="round" opacity="0.45"/>
    <path d="M78 62C68 78 48 86 26 78" stroke="#FF4F00" stroke-width="3.5" stroke-linecap="round" opacity="0.45"/>
    <path d="M20 74C14 52 22 30 36 20" stroke="#FF4F00" stroke-width="3.5" stroke-linecap="round" opacity="0.45"/>

    <!-- Outer nodes -->
    <circle cx="34" cy="16" r="7" fill="#FF4F00"/>
    <circle cx="82" cy="58" r="7" fill="#FF4F00"/>
    <circle cx="22" cy="80" r="7" fill="#FF4F00"/>

    <!-- Central node -->
    <circle cx="50" cy="50" r="9" fill="#FF4F00"/>

  </g>
</svg>
